<svg xmlns="http://www.w3.org/2000/svg" width="65" height="65" fill="none" viewBox="0 0 500 500"><path fill="#015ea7" d="M250 500c109.549 0 170.448 0 210.224-39.776S500 359.549 500 250s0-170.448-39.776-210.224S359.549 0 250 0 79.552 0 39.776 39.776 0 140.45 0 250s0 170.448 39.776 210.224S140.45 500 250 500"/><path fill="#fff" d="M387.841 190.928c-32.435-76.612-120.713-112.409-197.287-79.957-76.24 32.785-112.02 121.106-79.584 197.383 32.435 76.612 120.713 112.074 197.288 79.623 76.574-32.451 112.353-120.772 79.583-197.049m-261.824 23.084c-3.343 12.043-8.359 20.741-11.703 20.073-3.344-1.004-3.344-11.375 0-23.084 3.344-12.044 8.36-20.742 11.703-20.073 3.344 1.004 3.344 11.375 0 23.084m30.429 35.127c9.364-4.014 20.732 2.677 26.083 14.721 5.016 12.043 1.672 25.091-7.356 28.771-9.363 4.014-20.731-2.677-26.082-14.72-5.35-11.71-2.007-24.757 7.355-28.772m33.439 113.078c-3.678 4.684-14.713 2.677-24.745-4.684-10.031-7.36-15.047-17.396-11.369-22.414s14.713-2.677 24.745 4.684c10.032 7.695 15.048 17.731 11.369 22.414m5.016-177.98c-10.366 7.025-23.407 5.687-29.092-2.677-5.684-8.363-1.672-20.741 9.028-27.768 10.366-7.025 23.407-5.687 29.092 2.677 5.685 8.699 1.673 21.077-9.028 27.768m23.407-64.233c-.669-5.019 9.028-10.037 21.401-11.375 12.371-1.339 22.739 1.672 23.073 6.356.668 5.019-9.028 10.037-21.401 11.375s-22.738-1.338-23.073-6.356m19.06 95.011c11.704-5.018 25.079.335 29.761 12.044 5.015 11.709-.335 25.091-12.038 29.775-11.703 5.018-25.079-.335-29.76-12.044-4.682-11.375.668-24.757 12.037-29.775M223.993 326.42c-1.004-10.705 8.694-20.741 22.069-22.08s25.079 6.357 26.083 17.062-8.694 20.741-22.069 22.08c-13.377 1.338-25.081-6.021-26.083-17.062m40.461 62.226c-12.372 1.339-22.404.669-22.739-1.673-.334-2.341 9.363-5.018 21.735-6.356s22.403-.669 22.739 1.672c0 2.343-9.698 5.019-21.735 6.357m22.738-210.096c-11.035-5.687-16.385-17.396-12.037-26.096 4.347-8.698 17.053-11.375 28.088-6.022 11.035 5.687 16.385 17.396 12.038 26.095s-17.055 11.375-28.089 6.023m48.152 159.579c-9.028 8.364-20.397 11.375-24.745 6.357-4.682-5.018-1.004-15.723 8.36-24.423 9.028-8.363 20.397-11.374 24.744-6.356 4.682 5.353 1.004 16.059-8.359 24.422m13.711-74.604c-5.016 11.041-16.386 16.727-25.414 12.713-9.027-4.014-12.371-16.393-7.355-27.432 5.015-11.041 16.385-16.727 25.413-12.713s12.371 16.393 7.356 27.432m21.065-49.179c-5.684 2.342-14.043-5.018-19.059-16.393s-4.348-22.75 1.338-25.091c5.684-2.341 14.043 5.018 19.059 16.393 4.682 11.375 4.012 22.75-1.338 25.091m12.707 80.961c-2.34-.334-2.34-10.705-.334-22.75 2.006-12.043 5.684-21.745 8.026-21.411 2.34.334 2.34 10.705.334 22.75-2.341 12.379-5.685 21.747-8.026 21.411"/></svg>